<svg xmlns="http://www.w3.org/2000/svg" viewBox="0 0 2554.88 1092.67"><defs><style>.cls-1{fill:#36499b;}.cls-2{fill:#e04403;}</style></defs><g id="Layer_2" data-name="Layer 2"><g id="Layer_1-2" data-name="Layer 1"><polygon class="cls-1" points="1503.04 311.44 1103.49 87.67 1347.86 466.62 1503.04 311.44"/><polygon class="cls-1" points="1686.54 414.22 1686.54 596.03 1431.33 596.03 1751.56 1092.67 1751.56 643.86 2096.56 643.86 1686.54 414.22"/><polygon class="cls-1" points="1088.83 643.86 1751.56 0 1751.56 159.39 1369.87 534.79 1624.33 534.79 1624.33 367.02 1751.56 243.28 1751.56 534.79 1944.51 643.86 1751.56 643.86 1751.56 941.65 1624.33 749.77 1624.33 643.86 1088.83 643.86"/><path class="cls-1" d="M204.92,270.41,147.46,408.17,0,87.64H131.53ZM439.6,87.64,284.53,409.5V643.77H157.15V446.34L306,87.64Z"/><path class="cls-1" d="M550.7,401.41v56.08H514V510.1q0,43.62,36.69,49.85v82.38q-154.38-4.16-154.38-139.15V375.8q0-128.07,154.38-130.84v83.77Q514,332.2,514,372.34v29.07Zm19.39,0h40.15V372.34q0-39.46-40.15-43.61V245.65q156.43,2.78,156.45,131.53v80.31H570.09ZM726.54,503.87q0,132.24-156.45,138.46V559.26q40.14-6.24,40.15-49.16V499.72h116.3Z"/><path class="cls-1" d="M2096.34,86.68l140.52,557.19H2103.94l-26.29-117H1967.57l18-93.33H2059l-43.63-226.36-97.6,436.69h-126L1932.25,86.68Z"/><path class="cls-1" d="M2276.61,86.66h114.93V643.89H2276.61Z"/><path class="cls-1" d="M2439.94,86.66h114.94V643.91H2439.94Z"/><polygon class="cls-2" points="1503.04 311.44 1103.49 87.67 1347.86 466.62 1503.04 311.44"/><polygon class="cls-2" points="1686.54 414.22 1686.54 596.03 1431.33 596.03 1751.56 1092.67 1751.56 643.86 2096.56 643.86 1686.54 414.22"/><polygon class="cls-1" points="1088.83 643.86 1751.56 0 1751.56 159.39 1369.87 534.79 1624.33 534.79 1624.33 367.02 1751.56 243.28 1751.56 534.79 1944.51 643.86 1751.56 643.86 1751.56 941.65 1624.33 749.77 1624.33 643.86 1088.83 643.86"/><text/><path class="cls-1" d="M930.38,559.05q-53.1-6.87-53.1-62.79H772.05q2.07,141.89,158.33,147.38Z"/><path class="cls-1" d="M997,377.87h101.07Q1096,248.43,950,245.65v83.08Q995.66,332.87,997,377.87Z"/><path class="cls-1" d="M1087.39,479.64a152.69,152.69,0,0,0-38.77-36,291.6,291.6,0,0,0-50.53-26.31q-27.36-11.07-50.54-20.43t-38.77-18.69q-15.59-9.35-15.58-21.81,0-24.87,37.18-27.45V245.11Q788,250.14,788,359.88q0,45,35,72t104.18,49.84q70.62,22.84,70.62,51.23,0,26.44-47.9,27v83.72q153.09-4.12,153.13-114.16Q1103,500.41,1087.39,479.64Z"/></g></g></svg>
